<?xml version="1.0" encoding="utf-8"?>
<!-- Generator: Adobe Illustrator 19.0.0, SVG Export Plug-In . SVG Version: 6.00 Build 0)  -->
<svg version="1.1" id="layer" xmlns="http://www.w3.org/2000/svg" xmlns:xlink="http://www.w3.org/1999/xlink" x="0px" y="0px"
	 viewBox="-153 -46 652 652" style="enable-background:new -153 -46 652 652;" xml:space="preserve">
<style type="text/css">
	.st0{fill:none;stroke:#ffffff;stroke-width:2.3852;}
	.st1{fill-rule:evenodd;clip-rule:evenodd;}
</style>
<path class="st0" fill='#ffffff' d="M-77.6,280.8c0-68.9,112.2-124.7,250.7-124.7c138.4,0,250.7,55.8,250.7,124.7c0,68.9-112.2,124.7-250.7,124.7
	C34.6,405.5-77.6,349.6-77.6,280.8z M173.1,380.1c121.1,0,219.3-44.5,219.3-99.3c0-54.8-98.2-99.3-219.3-99.3
	c-121.1,0-219.3,44.4-219.3,99.3C-46.3,335.6,51.9,380.1,173.1,380.1z"/>
<path class="st1" fill='#ffffff' d="M-66.2,280.7c0-64.5,107.3-116.7,239.7-116.7c132.4,0,239.7,52.3,239.7,116.7c0,64.5-107.3,116.8-239.7,116.8
	C41.1,397.4-66.2,345.2-66.2,280.7 M-56.9,280.7c0-60.2,103.2-109,230.4-109c127.3,0,230.4,48.8,230.4,109
	c0,60.2-103.2,109-230.4,109C46.2,389.7-56.9,340.9-56.9,280.7 M-34.3,210.7c-27.3,20-43.3,44.1-43.3,70.1c0,26,16,50.1,43.3,70.1
	l0,0c-3.1-2.3-6-4.2-8.8-6.6c0,0-4.3-3.4-4.8-3.7c-0.4-0.3-8.7-6.7-9-6.8c-0.7-0.3-6.2-3.2-6.4-3.2c-0.7-0.2-3-1-3.2-1.1
	c-0.7-0.2-2.9-1-3.2-1.1c-2.1-0.5-10.4-0.3-11.8,0.4c-1,0.5-2.9,3.3-3.2,3.9c-1,1.5-1.2,4.7-2.9,5.4c-0.4,0.1-4.2,3.2-6.8,1.1
	c-1.8-1.4-4.9-4.4-5-4.3c-0.6-0.6-1.1-0.9-1.8-1.4c0.2-0.3-2.7-3.6-2.3-4.5c1.5-0.8,0.7-2.8,0.5-4.1c-0.1-0.7-1.3-1.7-1.4-2.1
	c-0.3-1.4,0.1-4,0.4-4.7c0.3-0.6,1.3-1.7,2-1.6c0.7,0.1,2.3,2.8,3.3,3.8c0,0,2.1,1.3,2.9,2c0.4,0.3,2.1-1.4,2.2-1.5
	c-0.6-0.5-0.3-0.8-0.8-2.7c-0.1-0.2,0.5-1,0.5-1.2c0.2,0.1,1.1-0.2,1.3,0c0.8,0.6,1.3,1.2,1.5,1.8c0.2-0.2,0.3-0.4,0.3-0.5h0.4
	c0.1-0.5-0.3-1.3,0-1.8c0.6-1.1,2.8-0.7,2.1-3.2c0-0.1-0.7-0.8-0.7-1.1c0,0.2-0.4-1-0.4-1.4c0.3-2.9,2-4.7-1.1-6.4
	c-0.6-0.4-1.2,0.1-1.8-0.4c-0.7-0.5-1.2-1.9-2.2-2.1c-2-0.6-7.3-0.7-9,0.4c-1.6,1.1-2.4,3.2-3.3,4.4c-2.5,3.4,1.5,7.9,0.6,8.3
	c-2.2,1-1.6,0.6-5.5-4c-0.7-0.9-2.8-0.5-2.9-0.5c-0.7-0.2-1.5,0.1-2.2,0c-2-0.6-3.2-3.4-4.3-5c-0.3-0.4-0.7-1.2-0.9-1.6
	c-0.3-0.5-0.6-2.1-0.6-2.1c-0.1-0.4-0.1-0.9-0.2-1.5c-0.2-1.2-0.2-3.6-0.1-5.4l-0.1-0.6c-0.2-0.1-0.8-1-1.1-1.1
	c-0.5-0.2-0.8-0.9-1.4-1.1c-0.6-0.1-1.2-2.6-1.4-3.6c-0.2-0.9,0-2.8,0-3.6c0.1,0,0.8-1.8,0.8-1.8c0.9-1.8,4.7-7.4,6.4-8.9
	c0.1-0.1,3.2-2.4,3.9-3.6c0.3-0.6,0-1.1,0.4-1.8c0.1-0.2,1-0.7,1.1-1.1c0.4-1.8-0.6-3.4-0.4-4.7c0,0,2.9-3.7,4.5-4.7
	c0.1-0.1,0.3-0.4,0.3-0.4c0.1-0.7,0.9-1.8,0.9-2.8c0-1.5-3.1-3.2-2.3-5.7c0.2-0.8,0.2-1.6-0.1-2.5c-0.3-0.9,0-3.1,0.3-3.9
	c0.3-0.9,1.7-2.8,3.6-4.7s5-3.9,5-3.9s4.8-2.9,5.7-3.2c0,0,26.6-9,40.4-11.9c9.9-2.1,17.5-5.9,21.6-8.7l0.4-0.2V210.7z
	 M-104.2,243.1c1.5,1.2,3.4-2.2,3.9-3.2c0.3-0.7,0-1.2,0.4-1.8c0-0.1,2.9-2.6,0.4-2.1C-101.6,236.3-104.8,242.7-104.2,243.1
	 M-97.8,251.3c-0.5,0.2-1.3,2,0.4,1.4C-96.9,252.6-96.1,250.8-97.8,251.3 M-110,249.2c0.2,0.3-0.2,0.7,0,1.1
	c0.2,0.4,0.9,0.8,1.4,0.7c0.5-0.1,0.6-0.3,0.7-0.7c0.1-0.4-0.6-2.5-0.7-2.9c-0.1-0.4-0.1-0.9-0.4-1.1c-0.3-0.2-0.9-0.4-1.1,0
	c-0.1,0.4-0.1,0.8-0.4,1.1L-110,249.2z M-89.4,318.8c-2.7,1.9,0,4.5,0,4.5C-85,323.3-86.6,316.9-89.4,318.8 M-101,332.3
	c0.5,0,1.5-2.6,2.5-2.9c1-0.3,3.3,0.9,5,0c0.5-0.2,0.5-1.2,0.8-1.6c0.3-0.4,1,0.1,1.4-0.6c0.6-1.1-0.8-5-1.5-5.3
	c-0.8-0.3-1.6,0.2-1.7,0.6c-0.1,0.4,0.9,3.6,0.7,4c-0.2,0.4-0.9,0.7-1.5,0.8c-0.6,0.1-2.4,0.2-2.8-0.8c-0.5-1.1,0.6-2.6,0.4-3.6
	c-0.3-1-2.1,0-2.9-1.3c-0.2-0.3-0.4-1.1-0.4-1.1c-0.4-0.4-0.2-1.5-1.3-1.1c-1.1,0.3-0.4,2.7-0.1,3.9c0.1,0.5,1.3,1,1.4,1.4
	c0.5,1.8-1.1,3.2-1.1,4.7C-102,330.9-101.5,332.3-101,332.3 M-86.2,305.3c-1.1,0.9,1.9,12.8,0.6,17.9c-0.1,0.3-1.7,1.6-1.7,1.7
	c-0.4,1.4,2,0.1,2.3,0c1.1-0.6,4-1,5.2-2.9c1.9-3-1.1-11.8-1.7-12.7c-0.6-0.9-1.8-0.7-2.3-1.7c-0.5-1.1-0.3-2.1-0.6-2.3
	C-84.9,305.1-85.1,304.4-86.2,305.3 M-79.5,308.4c-0.1,0.4,3.5,10.7,3.5,11.7c-0.1,1-1.4,1.4-1.6,2.4c-0.2,1,1.6,2.5,2.2,2.5
	c0.6,0,1.4-3.4,1.6-3.4c2.6-0.7,5.3,1.6,6,0.4c1.4-2.1-5.6-10.8-6.6-10.8s-2.4-1.3-2.8-1.7c-0.4-0.4-0.4-1.2-0.8-1.5
	C-78.4,307.6-79.4,308-79.5,308.4 M-94.2,285.9c0.8-0.1,1.3,0.1,1.7,0.4c0.4,0.2,0.5,1,0.9,1.3c1.2,0.8,2,3.3,3.1,4.1
	c2.1,1.7,4.1-1.4,6.6,0.6c2.5,2.1,2.9,4.8,2.9,5c3.2,0.6,1.5-4.6-0.3-5.8c-0.8-0.5-3.4-1-3.9-1.7c-0.5-0.7,0.2-1.6,0-2.2
	c-0.2-0.6-0.9-0.8-1.5-1c-0.5-0.2-3.9,0-5.4-1.2c-0.7-0.5-1-2.3-1.7-2.6c-1.2-0.5-3.5-1.7-3.9,0C-96.2,284.5-94.2,285.9-94.2,285.9
	 M-114.7,306.7c0.2-0.1,3.4-2,3.4-2.3c0-3.7,1.8-3.3,2.5-3.2c0.8,0.1,0.6-0.7,1.4-1.4c0.8-0.7,2.2-2.1,2.9-2.5
	c0.7-0.4,3.2-0.6,3.9-0.4c0.8,0.3,4.1,1.1,5.2,1.4c1.1,0.3,2.5,1.8,3.2,2.2c0.8,0.4,1.4,2,2.2,2.5c0.4,0.3,1.1,0.8,1.8,0.7
	c1.6-0.2-0.1-1.7,0.4-2.1c-0.9-0.9-5.5-6-6.1-6.1c-0.7-0.1-1.6,0.7-2.1,0.4c-0.5-0.3-0.1-1.6-0.4-2.1c-0.9-1.8-1.6-1.1-3.2-2.2
	c-0.1-0.1-1.1-0.5-1.4-0.7c-1-0.7-1.9-2.2-1.4-2.5c0.4-0.3,0.1-0.7,0.7-0.7c0.7,0,1.1,0.1,1.4,0.4c0.3,0.2,0.4,0.9,0.7,1.1
	c1,0.6,2,1.1,2.9,1.8c1.7,1.4,3.7,2.9,5.7,3.9c0,0.1,0.4,0.3,0.4,0.4c2.7,0.5,2.4-1.6,1-2.6c-0.7-0.4-2.5-1.2-3.2-1.4
	c0-0.5,0.2-1.3,0-1.8c-0.1-0.2-0.6-0.4-0.7-0.7c-2.3-0.1-3.7-0.1-5-1.1c-0.5-0.4-0.8-1.9-1.4-2.1c-0.9-0.4-2.2,0.2-3.2,0l-0.4-0.7
	c-0.6-0.4-1.1,0-1.8-0.4c-0.6-0.3-0.9-1.4-1.4-1.8c-1.2-0.8-2.6-0.9-3.6-1.8c-0.9-0.8-0.8-1.8-0.7-2.1c0.1-0.4,1.1-1.1,1.8-0.7
	c0.7,0.4,0.9,1.5,1.4,1.8c0.4,0.2,1.1,0,1.4,0.4c0.5,0.4,0.8,1.9,1.4,2.1h0.7c0.2-0.1,0.9-1,1.1-1.1c2-0.6,4.4,0.6,6.4,0
	c1.6-0.5,1.1-1.8,1.8-2.9c1.1-1.6,6-2.6,6.8-2.5c0.8,0,1.5,1.7,1.8,1.8c0.6,0.1,0.8,0.5,1.1-0.4c0.3-0.8-2.8-6.2-1.8-6.4
	c1-0.2,1,1.7,2.2,1.8c3.2,0.3,4-4.3,3.2-5.4c-0.8-1.1-6.3,1-6.9-2.8c-0.1-0.9,0.6-1.1,0.8-1.5c0.3-0.4,0-1.8,0.4-2.5
	c0.3-0.6,1.9-0.8,2.1-1.4c0.2-0.6,0.3-1.5,0-1.8c-0.3-0.3-0.8-0.2-1.1,0c-0.3,0.2,0,1.3-0.7,1.4c-0.8,0.1-1.3-0.1-1.4-0.7
	c-0.1-0.6,0.4-3.1,0.4-3.6c0-0.5,0.1-1.3-0.4-1.8c-0.5-0.4-0.8,0.1-1.1,0.4c-0.3,0.2-0.3,1.3-0.7,1.4c-2.9,0.9-3.1-1.2-3.6-1.4
	c-0.5-0.3-0.8-0.2-1.1,0c-0.2,0.2-1.6,2.2-2.5,2.5c-0.3,0.1-0.6,0-1.1-0.4c-0.4-0.4-0.8-1.7-1.4-2.1c-0.6-0.5-1-0.5-1.4-0.4
	c-0.4,0.2-2.9,3.6-4.7,5c-0.7,0.5-2.4,0.2-3.4,1.2c-3.4,3.2-3.1,6.7-1.6,8.1c0.1-0.3,1-0.2,1.1-0.4c0.3-0.6-0.2-1.2,0-1.8
	c0-0.2,0.3-0.7,0.7-0.7c0.4,0,0.7-0.2,1.1,0c0.6,0.2,1.3,1,1.6,1.3c0.4,0.3,0.2,0.7,0.5,0.9c0.3,0.2,1.4-0.5,2.1,0
	c0.8,0.5,1.3,1.8,2.1,2.2c1.5,0.6,3,0.3,4.3,1.1c0.6,0.4,0.6,1.3,1.1,1.8c-2.7,0.2-4.3,1.1-5.7,2.5c-0.2,0.1-0.5,1-0.7,1.1
	c-2.5,0.8-7.8-0.7-8.2-1.8c-0.4-1,0.2-3.5,0-3.9c-0.2-0.4-0.7-0.6-1.1-0.4c-0.3,0.2-0.5,0.9-0.7,1.1c-1,0.7-2.6,1.9-3.2,2.9
	c-0.6,0.9-0.4,1.5-1.1,2.2c-0.5,0.4-1,1.1-1.4,1.1l-0.6,0.3c-1.4,0.3-4.8,5.2-5.5,7.9l-0.1,0.5c0,0.3,0,0.7,0.2,1
	c0.5,0.7,1.4,2,1.7,2.1c0.3,0.1,0.8-0.1,1.2-0.7c0.4-0.6-0.2-1.5,0-2.1c0.7-2.1,2.8-1.2,4.5-1.8c0.9-0.4,1.5-5.4,2.3-5.7
	c0.8-0.3,1.6,0.4,1.8,1.1c0.2,0.7-0.4,2.6-1.1,3.6c-0.6,0.9-2.2,1.6-2.9,2.5c-0.5,0.7-0.4,1.6-1.1,2.1c-0.5,0.4-1.1,0.2-1.4,0.7
	c-0.5,0.7-0.5,2.1-0.1,2.5c0.4,0.4,3.6,0.8,4.1,1.4c0.1,0.1,0.9,1,0.5,1.5c-0.4,0.4-4.2,0.2-4.9,0.5c-0.7,0.3-1.2,0.9-1.3,1.3
	c-0.1,0.4-0.2,1.6-0.2,2.7c0,0.9,0.4,4.5,1.2,5.5c0.1,0.2,0.2,0.4,0.3,0.5c0.9,1.6,0.9,3.4,2.6,4.1
	C-115.9,307.9-114.7,306.7-114.7,306.7 M-86.5,245.1c-1.8,0.5-3.1,3.2-2.4,3.8c0.8,0.5,1.7-1,2.9-0.9c1.1,0.1,2,2.7,2.4,2.9
	c1.2,0.6,3-0.2,3.8,0.5c1.1,0.9,1.3,4,2.9,4.3c1.6,0.3,3.7-3.5,3.8-4.8c0.1-1.2-1.7-3.2-2.9-3.8C-77.4,246.3-84.2,244.4-86.5,245.1
	 M-82.3,240.2c-0.9,0.2-4.3,2.2-2.8,2.9c4.9-0.8,8.4-1,10.6-0.3c1.2,0.4,2.7,2.5,3.9,3.1c2.1,0.9,3.5-5,1.3-6.1
	C-73.5,238-81.5,240-82.3,240.2 M-108.2,270.8c0.7,0.2,1.5-0.5,1.8-1.5c0.2-1-0.2-1.9-0.9-2.1c-0.7-0.2-1.5,0.5-1.8,1.5
	C-109.3,269.7-108.9,270.6-108.2,270.8 M-81.6,258.6c-4.5,1.4-1.6,6.9,1.1,6.7C-77.8,265.3-75,256.4-81.6,258.6 M-97.9,234.2
	c-1,0.1-6.8,2.3-8.4,6.8c-0.2,0.4-1,0.2-1.4,1.1c-0.4,0.9-0.3,5.9,0.6,7.6c0.4,0.8,1.3,1.4,2.4,1.2c1-0.2,2.7-3.2,4.7-2.4
	c0.5,0.2,0.8,1.6,0.8,1.6c0.3,0.1,0.7,0.3,1.2,0c0.4-0.3-0.6-5.2,0-7.1c0.5-1.5,3.7-2.5,4.3-3.9c0.5-1.1,0.7-1.7,1.2-3.2
	c0.2-0.6,1-1.4,1.6-1.8c0.5-0.5,1.1-1.6,0.8-1.7c-0.4-0.1-0.6-0.7-0.8-0.8c-3.1-1.1-4.5,1.7-5,2.1C-96.4,234-97.4,234.1-97.9,234.2
	 M-86.7,235.8c3.4,0.8,8.3,1.3,11.3,0c4.2-1.7,6.3-3.4,10.1-5.9c0.4,0,5.5-1.3,5.9-1.3c2.5-1.7,6.7-3.6,5.9-6.1
	c-6.3-0.8-20.1,5.6-20.5,6.1c-0.8,0-3.8,1.3-5,1.3c-3.4,0.4-8.8,0.4-8.8,4.6C-88,235-87.1,235.8-86.7,235.8 M377.9,352.7
	c28.9-20.3,45.9-45.1,45.9-71.9c0-26.8-17-51.6-45.9-71.9l3,1.7c4.1,2.8,11.6,6.5,21.6,8.5c13.8,2.9,40.4,11.9,40.4,11.9
	c0.9,0.4,5.7,3.2,5.7,3.2s3.1,2.1,5,3.9c1.9,1.9,3.3,3.8,3.6,4.7c0.3,0.9,0.6,3,0.3,3.9c-0.3,0.9-0.4,1.7-0.1,2.5
	c0.7,2.5-2.3,4.2-2.3,5.7c0,1,0.7,2,0.9,2.8c0,0,0.2,0.4,0.3,0.4c1.6,1,4.5,4.7,4.5,4.7c0.3,1.3-0.8,2.9-0.4,4.7
	c0.1,0.3,1,0.8,1.1,1.1c0.3,0.7,0,1.2,0.4,1.8c0.7,1.2,3.9,3.5,3.9,3.6c1.6,1.5,5.4,7.1,6.4,8.9c0,0,0.7,1.8,0.8,1.8
	c0,0.8,0.2,2.7,0,3.6c-0.2,1-0.9,3.4-1.4,3.6c-0.6,0.1-0.9,0.9-1.4,1.1c-0.2,0.1-0.9,1-1.1,1.1l0,0.6c0.2,1.8,0.1,4.3-0.1,5.4
	c-0.1,0.5-0.1,1.1-0.2,1.5c0,0-0.3,1.6-0.6,2.1c-0.2,0.4-0.6,1.2-0.9,1.6c-1.1,1.6-2.3,4.5-4.3,5c-0.7,0.2-1.5-0.1-2.1,0
	c-0.2,0-2.2-0.3-3,0.5c-3.9,4.6-3.3,5-5.5,4c-0.9-0.4,2.5-4.6,0.6-8.3c-0.7-1.3-1.6-3.4-3.3-4.4c-1.6-1.1-7-0.9-9-0.4
	c-1,0.3-1.4,1.7-2.1,2.1c-0.6,0.4-1.2,0-1.8,0.4c-3.1,1.7-1.4,3.6-1.1,6.4c0.1,0.4-0.3,1.6-0.4,1.4c-0.1,0.2-0.7,1-0.7,1.1
	c-0.6,2.5,1.5,2.1,2.1,3.2c0.3,0.5-0.1,1.3,0,1.8h0.4c0.1,0.2,0.1,0.3,0.2,0.4c0.4-0.5,0.9-1.1,1.7-1.7c0.2-0.1,1.1,0.2,1.3,0
	c-0.1,0.2,0.5,1,0.5,1.2c-0.5,1.8-0.2,2.2-0.9,2.4c0.1,0.3,1.8,2,2.2,1.7c0.8-0.6,2.9-2,2.9-2c1-1,2.7-3.7,3.4-3.8
	c0.7-0.1,1.7,1,2,1.6c0.3,0.6,0.7,3.2,0.4,4.7c-0.1,0.4-1.3,1.5-1.4,2.1c-0.2,1.4-1,3.4,0.4,3.9c0.6,1.1-2.4,4.4-2.2,4.7
	c-0.7,0.5-1.2,0.9-1.8,1.4c-0.1-0.1-3.3,2.9-5,4.3c-2.6,2.1-6.4-0.9-6.8-1.1c-1.7-0.7-1.9-3.9-2.9-5.4c-0.4-0.6-2.3-3.5-3.2-3.9
	c-1.4-0.7-9.7-0.8-11.8-0.4c-0.3,0.1-2.5,0.9-3.2,1.1c-0.2,0.1-2.5,0.9-3.2,1.1c-0.2,0.1-5.8,3-6.5,3.2
	c-0.3,0.1-17.6,13.6-17.6,13.6c-2.4,1.9-5,3.8-7.6,5.6V352.7z M445.8,235.9c-2.5-0.5,0.3,2.1,0.4,2.1c0.4,0.6,0,1.1,0.4,1.8
	c0.5,1,2.5,4.4,3.9,3.2C451,242.7,447.8,236.3,445.8,235.9 M443.6,252.8c1.7,0.6,0.9-1.3,0.4-1.4
	C442.3,250.8,443.1,252.6,443.6,252.8 M456.5,247.4c-0.3-0.3-0.2-0.7-0.4-1.1c-0.1-0.4-0.8-0.2-1.1,0c-0.3,0.2-0.3,0.7-0.4,1.1
	c-0.1,0.4-0.8,2.4-0.7,2.9c0.1,0.4,0.2,0.7,0.7,0.7c0.5,0.1,1.3-0.4,1.4-0.7c0.2-0.4-0.2-0.8,0-1.1L456.5,247.4z M448.3,329.5
	c0-1.5-1.5-2.9-1.1-4.7c0.1-0.4,1.3-0.9,1.4-1.4c0.3-1.2,1-3.6-0.1-3.9c-1.1-0.3-0.9,0.7-1.3,1.1c0,0-0.2,0.8-0.4,1.1
	c-0.8,1.3-2.6,0.4-2.9,1.3c-0.3,1,0.8,2.5,0.4,3.6c-0.5,1-2.3,0.9-2.8,0.8c-0.6-0.1-1.3-0.4-1.5-0.8c-0.2-0.4,0.9-3.5,0.8-4
	c-0.1-0.4-0.9-0.9-1.7-0.6c-0.8,0.3-2.1,4.1-1.5,5.3c0.4,0.7,1.1,0.2,1.4,0.6c0.3,0.4,0.3,1.3,0.8,1.6c1.7,0.9,4-0.3,5,0
	c1,0.2,2,2.9,2.5,2.9C447.7,332.3,448.2,331,448.3,329.5 M463.6,307.3c1.7-0.7,1.8-2.5,2.6-4.1c0.1-0.2,0.2-0.4,0.3-0.5
	c0.8-1.1,1.2-4.6,1.2-5.5c0-1.1-0.1-2.3-0.2-2.8c-0.1-0.4-0.6-1-1.3-1.3c-0.7-0.3-4.5,0-4.9-0.5c-0.4-0.4,0.4-1.3,0.5-1.5
	c0.5-0.6,3.6-1,4.1-1.4c0.4-0.4,0.4-1.8-0.1-2.5c-0.3-0.5-1-0.3-1.4-0.7c-0.6-0.5-0.6-1.5-1.1-2.1c-0.7-0.9-2.3-1.6-2.9-2.5
	c-0.7-1-1.3-2.9-1.1-3.6c0.2-0.7,1-1.3,1.8-1.1c0.8,0.3,1.4,5.3,2.3,5.7c1.6,0.7,3.8-0.2,4.5,1.8c0.2,0.7-0.4,1.6,0,2.1
	c0.4,0.6,0.8,0.8,1.2,0.7c0.3-0.1,1.2-1.4,1.7-2.1c0.2-0.2,0.1-0.6,0.2-1l-0.1-0.5c-0.7-2.7-4.1-7.5-5.5-7.9l-0.6-0.3
	c-0.4,0-0.9-0.6-1.4-1.1c-0.7-0.7-0.5-1.3-1.1-2.2c-0.6-1-2.2-2.2-3.2-2.9c-0.2-0.1-0.4-0.9-0.7-1.1c-0.3-0.2-0.9,0-1.1,0.4
	c-0.2,0.4,0.4,3,0,3.9c-0.4,1.1-5.7,2.6-8.2,1.8c-0.2-0.1-0.6-0.9-0.7-1.1c-1.5-1.4-3-2.3-5.7-2.5c0.5-0.5,0.5-1.4,1.1-1.8
	c1.3-0.8,2.8-0.5,4.3-1.1c0.8-0.4,1.4-1.7,2.1-2.2c0.8-0.5,1.9,0.2,2.1,0c0.3-0.2,0.1-0.6,0.5-0.9c0.4-0.3,1-1,1.6-1.3
	c0.4-0.2,0.7,0,1.1,0c0.4,0.1,0.7,0.5,0.7,0.7c0.2,0.6-0.3,1.2,0,1.8c0.1,0.2,1,0,1.1,0.4c1.5-1.4,1.8-4.9-1.6-8.1
	c-1-1-2.7-0.7-3.4-1.2c-1.8-1.4-4.2-4.9-4.7-5c-0.4-0.2-0.8-0.1-1.4,0.4c-0.6,0.5-1,1.8-1.4,2.1c-0.4,0.4-0.8,0.4-1.1,0.4
	c-0.9-0.3-2.3-2.3-2.5-2.5c-0.2-0.2-0.5-0.3-1.1,0c-0.5,0.3-0.7,2.3-3.6,1.4c-0.4-0.1-0.4-1.2-0.7-1.4c-0.3-0.3-0.6-0.8-1.1-0.4
	c-0.5,0.4-0.4,1.3-0.4,1.8c0,0.5,0.6,3,0.4,3.6c-0.2,0.6-0.7,0.8-1.4,0.7c-0.8-0.1-0.4-1.3-0.7-1.4c-0.3-0.2-0.8-0.3-1.1,0
	c-0.3,0.3-0.2,1.2,0,1.8c0.2,0.6,1.9,0.9,2.1,1.4c0.4,0.7,0.1,2.1,0.4,2.5c0.3,0.4,1,0.6,0.8,1.5c-0.7,3.8-6.2,1.7-6.9,2.8
	c-0.8,1.1,0,5.7,3.2,5.4c1.2-0.1,1.1-2,2.1-1.8c1,0.2-2.1,5.6-1.8,6.4c0.3,0.8,0.4,0.5,1.1,0.4c0.3-0.1,1-1.7,1.8-1.8
	c0.8-0.1,5.7,0.9,6.8,2.5c0.7,1,0.2,2.4,1.8,2.9c2,0.6,4.4-0.6,6.4,0c0.2,0,0.8,1,1.1,1.1h0.7c0.6-0.2,0.9-1.7,1.4-2.1
	c0.4-0.3,1-0.1,1.4-0.4c0.5-0.3,0.7-1.4,1.4-1.8c0.7-0.4,1.7,0.4,1.8,0.7c0.1,0.4,0.1,1.3-0.7,2.1c-1,0.9-2.4,1-3.6,1.8
	c-0.5,0.3-0.9,1.5-1.4,1.8c-0.7,0.4-1.2,0-1.8,0.4l-0.4,0.7c-1,0.2-2.3-0.4-3.2,0c-0.6,0.2-0.9,1.7-1.4,2.1c-1.3,1-2.7,1-5,1.1
	c-0.1,0.4-0.7,0.5-0.7,0.7c-0.2,0.5,0,1.3,0,1.8c-0.7,0.2-2.6,1-3.2,1.4c-1.4,1-1.7,3.1,1,2.6c0-0.1,0.5-0.3,0.5-0.4
	c2.1-1,4-2.6,5.7-3.9c0.9-0.7,1.9-1.2,2.9-1.8c0.3-0.2,0.4-0.9,0.7-1.1c0.4-0.2,0.8-0.4,1.4-0.4c0.7,0,0.3,0.4,0.7,0.7
	c0.4,0.3-0.4,1.8-1.4,2.5c-0.3,0.2-1.4,0.7-1.4,0.7c-1.6,1.1-2.3,0.3-3.2,2.2c-0.3,0.5,0.2,1.8-0.4,2.1c-0.5,0.3-1.4-0.5-2.2-0.3
	c-0.5,0.1-5.2,5.2-6.1,6.1c0.5,0.4-1.3,1.9,0.4,2.1c0.7,0.1,1.3-0.4,1.8-0.7c0.8-0.5,1.4-2.1,2.2-2.5c0.7-0.4,2.1-1.9,3.2-2.2
	c1.1-0.3,4.5-1.1,5.2-1.4c0.8-0.3,3.3,0,3.9,0.4c0.7,0.4,2,1.8,2.9,2.5c0.8,0.7,0.7,1.5,1.4,1.4c0.7-0.1,2.5-0.5,2.5,3.2
	c0,0.3,3.3,2.2,3.4,2.3C460.9,306.7,462.1,307.9,463.6,307.3 M455.3,268.7c-0.2-1-1-1.6-1.8-1.5c-0.7,0.2-1.1,1.1-0.9,2.1
	c0.2,1,1,1.6,1.8,1.5C455.1,270.6,455.5,269.7,455.3,268.7 M424.2,307.9c-0.4,0.3-0.4,1.1-0.8,1.5c-0.4,0.4-1.8,1.7-2.8,1.7
	c-1,0-8,8.7-6.6,10.8c0.8,1.2,3.4-1.1,6-0.4c0.2,0.1,1,3.4,1.6,3.4c0.6,0,2.3-1.5,2.2-2.5c-0.2-1-1.5-1.4-1.6-2.4
	c-0.1-1,3.6-11.3,3.5-11.7C425.6,308,424.6,307.6,424.2,307.9 M430.7,305.3c-0.3,0.2,0,1.2-0.6,2.3c-0.5,1.1-1.7,0.8-2.3,1.7
	c-0.6,0.9-3.6,9.7-1.7,12.7c1.2,1.9,4.1,2.3,5.2,2.9c0.3,0.1,2.7,1.4,2.3,0c0-0.1-1.6-1.4-1.7-1.7c-1.4-5,1.7-17,0.6-17.9
	C431.3,304.4,431.1,305.1,430.7,305.3 M442,282.8c-0.4-1.7-2.8-0.5-3.9,0c-0.7,0.3-1.1,2.1-1.7,2.6c-1.6,1.2-4.9,1-5.4,1.2
	c-0.5,0.2-1.3,0.4-1.5,1c-0.2,0.6,0.5,1.4,0,2.2c-0.5,0.7-3.1,1.2-3.9,1.7c-1.7,1.2-3.5,6.4-0.3,5.8c0-0.1,0.4-2.9,2.9-5
	c2.5-2.1,4.5,1.1,6.6-0.6c1-0.8,1.9-3.3,3.1-4.1c0.4-0.3,0.5-1.1,0.9-1.3c0.4-0.3,0.9-0.5,1.7-0.4
	C440.4,285.9,442.4,284.5,442,282.8 M426.7,265.4c2.7,0.1,5.6-5.3,1.1-6.7C421.1,256.4,424,265.3,426.7,265.4 M422.2,247
	c-1.2,0.6-2.9,2.6-2.9,3.8c0.1,1.2,2.2,5.1,3.8,4.8c1.6-0.3,1.7-3.4,2.9-4.3c0.9-0.7,2.6,0.2,3.8-0.5c0.4-0.2,1.2-2.8,2.4-2.9
	c1.1-0.1,2.1,1.4,2.9,1c0.7-0.7-0.6-3.3-2.4-3.8C430.4,244.4,423.6,246.3,422.2,247 M415.4,239.8c-2.2,1-0.8,7,1.3,6.1
	c1.2-0.6,2.7-2.7,3.9-3.1c2.2-0.7,5.8-0.5,10.6,0.3c1.5-0.7-2-2.7-2.8-2.9C427.7,240,419.7,238,415.4,239.8 M442.2,233.6
	c-0.5-0.4-1.9-3.1-5-2.1c-0.2,0.1-0.4,0.7-0.8,0.8c-0.3,0.1,0.3,1.3,0.8,1.7c0.5,0.4,1.4,1.3,1.5,1.8c0.4,1.4,0.7,2.1,1.2,3.2
	c0.7,1.4,3.9,2.5,4.3,3.9c0.6,1.9-0.4,6.8,0,7.1c0.4,0.3,0.9,0.1,1.2,0c0,0,0.3-1.4,0.8-1.6c2.1-0.8,3.7,2.2,4.7,2.4
	c1,0.2,1.9-0.4,2.4-1.2c0.9-1.7,1-6.7,0.6-7.6c-0.4-0.9-1.3-0.6-1.4-1.1c-1.6-4.5-7.4-6.7-8.4-6.8
	C443.6,234.1,442.6,234,442.2,233.6 M434.1,234.6c0-4.2-5.5-4.2-8.8-4.6c-1.3,0-4.2-1.3-5-1.3c-0.4-0.4-14.2-6.9-20.5-6.1
	c-0.8,2.5,3.4,4.4,5.9,6.1c0.4,0,5.5,1.3,5.9,1.3c3.8,2.5,5.9,4.2,10.1,5.9c2.9,1.3,7.9,0.8,11.3,0
	C433.2,235.8,434.1,235,434.1,234.6 M435.6,323.3c0,0,2.7-2.6,0-4.5C432.8,316.9,431.2,323.3,435.6,323.3 M61.6,246.2
	c7.4,0,14.4,0.1,19.8,0.6l-0.1,0c1.2,0.2,3.3,1.3,4.4,2.3l1.9,1.7l0.2-2.5c0.1-1.8,1.5-6.8,2.5-8.4l1.2-1.9h-2.2l-65,0.1l-1.4,0
	l0.1,1.3c0.1,1-0.5,5.3-1.7,8.8l-1.4,4.2l3.4-2.8c1.4-1.2,3.3-2.2,4.3-2.3c5.9-0.6,10.5-1,21.3-1h0v69.6c0,2.5-2.2,4.2-2.2,4.2
	l-3.3,2.5c0,0,4.1-0.3,4.1-0.3c1.7-0.1,6.1-0.4,7.8-0.4c1.4,0,5,0.2,7.6,0.4l3.3,0.2l-2.3-2.3c-0.6-0.6-2.1-2.5-2.1-4.2L61.6,246.2
	L61.6,246.2z M127.4,323.4c13.5,0,25.5-4.6,33.8-12.9c8.2-8.2,12.5-19.3,12.5-32.3c0-11.9-3.7-21.7-11.1-29.1
	c-8.2-8.2-21-12.9-34.9-12.9c-26.5,0-45,18-45,43.8c0,12.6,4.1,23.3,11.9,31.1C102.6,319.1,114,323.4,127.4,323.4 M103.9,253.7
	c5.5-6.9,14.3-11.1,23.6-11.1c8.6,0,16.1,2.9,21.6,8.4c6.9,6.9,10.5,17.4,10.5,30.4c0,21.6-12.2,35.6-31,35.6
	c-8.5,0-15.6-3.1-21.3-9.1c-8-8.5-11-20.8-10.5-28.7C96.7,269.4,98,261.4,103.9,253.7 M179.6,321.6h26c11.5,0,25.8,0,36.5-9.4
	c10.3-9.1,15.3-21,15.3-36.1c0-12.8-4.7-23.7-13.1-30.7c-9.2-7.7-19.7-7.6-30.9-7.5l-4.1,0h-29.8h-2.7l1.8,2.1
	c1,1.2,2.7,3.6,2.7,4.9v69.3c0,2-1.9,4.5-2.6,5.3l-2,2.1H179.6z M194.2,245.1c2.1,0,3-0.1,5-0.1c3-0.1,5.8-0.2,8.7-0.2
	c13.7,0,22.6,2.5,28,7.9c5.1,5.1,7.5,13.1,7.5,25.3c0,16.5-5.5,27.6-16.3,33.1c-8.5,4.3-21.1,3.5-31.2,2.9l-1.6-0.1V245.1z
	 M261.7,252.2c0.9,3-0.9,9.9-0.9,9.9s1.1-0.5,1.6-1.2c1.1-1.4,4.5-10.5,5.3-12.6c0.7-2.1,1-5-0.1-7.6c-1.2-2.8-6-4-8.9-2.7
	c-4.3,2-4.8,7.3-2.6,9.4C257.7,249,260.9,249.3,261.7,252.2 M274.4,304.5c-0.4,3.4-1,6.9-2.2,10.4l-0.2,0.7l0.5,0.5
	c4.5,5,14.7,7.3,20.2,7.3c9,0,17.1-3.1,22.7-8.6c5.1-5.1,7.8-11.9,7.8-19.8c0-14-10.9-18.3-20.4-22.1c-9-3.6-16.8-6.7-16.8-16.4
	c0-3.4,1.2-6.5,3.5-8.8c2.5-2.5,6.1-3.9,10.1-3.9c6.3,0,11.1,3.4,13.5,9.6l0.3,0.8h0.8h1.2h0.9l0.3-0.9l0.4-1.5
	c0.8-2.8,1.5-5.5,2.7-8.1l0.4-0.8l-0.7-0.6c-5-4.5-12.4-6-17.7-6c-16.7,0-27.5,9.5-27.5,24.1c0,15,11,19.3,20.6,23.1
	c8.8,3.5,16.4,6.5,16.4,16.2c0,9.1-6.7,16.2-15.2,16.2c-7.8,0-13-3.4-18.1-11.8l-0.4-0.6h-0.7h-1.2h-1.1L274.4,304.5z"/>
</svg>
